<svg width="40" height="35" viewBox="0 0 40 35" fill="none" xmlns="http://www.w3.org/2000/svg">
<path fill-rule="evenodd" clip-rule="evenodd" d="M20.9424 3.42009C20.3535 3.10551 19.6465 3.10551 19.0577 3.42009L6.69795 10.0227C5.27539 10.7826 5.2912 12.8273 6.72535 13.5652L19.1253 19.9447C19.7008 20.2408 20.384 20.2401 20.9589 19.9428L33.2869 13.5678C34.7178 12.8278 34.7315 10.7862 33.3106 10.0272L20.9424 3.42009ZM32.6718 16.7284C33.4721 16.3305 34.4895 16.5755 34.9443 17.2758C35.3666 17.926 35.1552 18.7401 34.4821 19.1717L34.3187 19.2642L23.3277 24.7292C21.9448 25.423 20.257 25.4708 18.8273 24.8697L18.5251 24.731L7.66374 19.2602C6.866 18.8584 6.59157 17.9668 7.05079 17.2688C7.47721 16.6206 8.38626 16.3672 9.15267 16.6561L9.32672 16.7324L20.1824 22.2003C20.5829 22.4002 21.0713 22.4248 21.4971 22.2724L21.6753 22.1962L32.6718 16.7284ZM32.5102 22.0657C33.3105 21.6678 34.3279 21.9128 34.7827 22.6131C35.205 23.2633 34.9936 24.0774 34.3205 24.509L34.1571 24.6015L23.1662 30.0665C21.7832 30.7603 20.0954 30.8081 18.6657 30.207L18.3635 30.0682L7.50215 24.5975C6.7044 24.1957 6.42998 23.3041 6.88919 22.606C7.31561 21.9579 8.22467 21.7045 8.99108 21.9934L9.16512 22.0697L20.0208 27.5376C20.4213 27.7375 20.9097 27.7621 21.3355 27.6096L21.5137 27.5335L32.5102 22.0657Z" fill="#7D8592"/>
</svg>
