<svg width="41" height="40" viewBox="0 0 41 40" fill="none" xmlns="http://www.w3.org/2000/svg">
<path d="M38.7307 11.6887C39.6633 10.5489 39.4953 8.8688 38.3555 7.93619C37.2156 7.00358 35.5356 7.17159 34.603 8.31144L21.2731 24.6034L14.9994 19.5844C13.8493 18.6644 12.1712 18.8509 11.2512 20.0009C10.3312 21.1509 10.5176 22.829 11.6677 23.7491L18.7138 29.3859C20.5681 30.8694 23.2709 30.5841 24.7746 28.7462L38.7307 11.6887Z" stroke="#7D8592" stroke-width="2" stroke-linecap="round"/>
<mask id="path-2-outside-1_102_64" maskUnits="userSpaceOnUse" x="-0.666748" y="6.99997" width="29" height="24" fill="black">
<rect fill="white" x="-0.666748" y="6.99997" width="29" height="24"/>
<path fill-rule="evenodd" clip-rule="evenodd" d="M17.7144 20.4838L25.7739 10.6332C26.1237 10.2058 26.0607 9.57577 25.6332 9.22604C25.2058 8.87631 24.5757 8.93932 24.226 9.36676L16.1779 19.2034L17.7144 20.4838ZM13.2815 25.9017L11.745 24.6213L9.83307 26.9581L3.93331 22.5333C3.49148 22.202 2.86468 22.2915 2.53331 22.7333C2.20194 23.1752 2.29148 23.802 2.73331 24.1333L8.63307 28.5581C9.49045 29.2012 10.7023 29.0541 11.381 28.2246L13.2815 25.9017Z"/>
</mask>
<path d="M25.7739 10.6332L27.3219 11.8997L27.3219 11.8997L25.7739 10.6332ZM17.7144 20.4838L16.434 22.0203L17.9843 23.3122L19.2623 21.7503L17.7144 20.4838ZM25.6332 9.22604L26.8997 7.67813L25.6332 9.22604ZM24.226 9.36676L22.6781 8.10029V8.10029L24.226 9.36676ZM16.1779 19.2034L14.6299 17.9369L13.3748 19.471L14.8975 20.7398L16.1779 19.2034ZM13.2815 25.9017L14.8294 27.1682L16.0846 25.6342L14.5619 24.3653L13.2815 25.9017ZM11.745 24.6213L13.0254 23.0849L11.475 21.7929L10.1971 23.3548L11.745 24.6213ZM9.83307 26.9581L8.63307 28.5581L10.1669 29.7085L11.381 28.2246L9.83307 26.9581ZM3.93331 22.5333L2.73331 24.1333L2.73331 24.1333L3.93331 22.5333ZM2.53331 22.7333L0.933311 21.5333L0.933308 21.5333L2.53331 22.7333ZM2.73331 24.1333L3.93331 22.5333H3.93331L2.73331 24.1333ZM8.63307 28.5581L7.43307 30.1581H7.43307L8.63307 28.5581ZM11.381 28.2246L9.83307 26.9581L11.381 28.2246ZM24.226 9.36676L16.1664 19.2173L19.2623 21.7503L27.3219 11.8997L24.226 9.36676ZM24.3667 10.774C23.9393 10.4242 23.8763 9.79421 24.226 9.36677L27.3219 11.8997C28.371 10.6174 28.182 8.72731 26.8997 7.67813L24.3667 10.774ZM25.7739 10.6332C25.4242 11.0607 24.7942 11.1237 24.3667 10.774L26.8997 7.67813C25.6174 6.62894 23.7273 6.81795 22.6781 8.10029L25.7739 10.6332ZM17.7258 20.4699L25.7739 10.6332L22.6781 8.10029L14.6299 17.9369L17.7258 20.4699ZM14.8975 20.7398L16.434 22.0203L18.9947 18.9474L17.4582 17.667L14.8975 20.7398ZM14.5619 24.3653L13.0254 23.0849L10.4646 26.1578L12.0012 27.4382L14.5619 24.3653ZM11.381 28.2246L13.2929 25.8878L10.1971 23.3548L8.28515 25.6917L11.381 28.2246ZM2.73331 24.1333L8.63307 28.5581L11.0331 25.3581L5.13331 20.9333L2.73331 24.1333ZM4.13331 23.9333C3.80194 24.3752 3.17514 24.4647 2.73331 24.1333L5.13331 20.9333C3.80783 19.9392 1.92742 20.2079 0.933311 21.5333L4.13331 23.9333ZM3.93331 22.5333C4.37514 22.8647 4.46468 23.4915 4.13331 23.9333L0.933308 21.5333C-0.0607979 22.8588 0.207824 24.7392 1.53331 25.7333L3.93331 22.5333ZM9.83307 26.9581L3.93331 22.5333L1.53331 25.7333L7.43307 30.1581L9.83307 26.9581ZM9.83307 26.9581H9.83307L7.43307 30.1581C9.14784 31.4442 11.5716 31.15 12.9289 29.4911L9.83307 26.9581ZM11.7336 24.6353L9.83307 26.9581L12.9289 29.4911L14.8294 27.1682L11.7336 24.6353Z" fill="#7D8592" mask="url(#path-2-outside-1_102_64)"/>
</svg>
