<svg width="41" height="42" viewBox="0 0 41 42" fill="none" xmlns="http://www.w3.org/2000/svg">
<path d="M38.4914 0C39.1061 0 39.633 0.224044 40.0721 0.672131C40.5112 1.12022 40.7307 1.65792 40.7307 2.28525V39.0105C40.7307 39.6379 40.5112 40.1756 40.0721 40.6236C39.633 41.0717 39.1061 41.2958 38.4914 41.2958H28.1902V25.299H33.433L34.2234 19.0617H28.1902V15.0826C28.1902 14.0789 28.3922 13.3261 28.7961 12.8243C29.2177 12.3224 30.0256 12.0715 31.2199 12.0715L34.4341 12.0446V6.47935C33.3276 6.31804 31.7644 6.23739 29.7446 6.23739C27.3559 6.23739 25.4415 6.95432 24.0012 8.3882C22.5786 9.82209 21.8672 11.8474 21.8672 14.4643V19.0617H16.5981V25.299H21.8672V41.2958H2.50312C1.88839 41.2958 1.36147 41.0717 0.922376 40.6236C0.483281 40.1756 0.263733 39.6379 0.263733 39.0105V2.28525C0.263733 1.65792 0.483281 1.12022 0.922376 0.672131C1.36147 0.224044 1.88839 0 2.50312 0H38.4914Z" fill="#7D8592"/>
</svg>
