<svg width="185" height="186" viewBox="0 0 185 186" fill="none" xmlns="http://www.w3.org/2000/svg">
<g clip-path="url(#clip0_105_887)">
<path d="M185 0H0V186H185V0Z" fill="white"/>
<path d="M19.2708 11.625H11.5625V19.375H19.2708V11.625Z" fill="black"/>
<path d="M26.9792 11.625H19.2708V19.375H26.9792V11.625Z" fill="black"/>
<path d="M34.6875 11.625H26.9792V19.375H34.6875V11.625Z" fill="black"/>
<path d="M42.3958 11.625H34.6875V19.375H42.3958V11.625Z" fill="black"/>
<path d="M50.1042 11.625H42.3958V19.375H50.1042V11.625Z" fill="black"/>
<path d="M57.8125 11.625H50.1042V19.375H57.8125V11.625Z" fill="black"/>
<path d="M65.5208 11.625H57.8125V19.375H65.5208V11.625Z" fill="black"/>
<path d="M80.9375 11.625H73.2292V19.375H80.9375V11.625Z" fill="black"/>
<path d="M88.6458 11.625H80.9375V19.375H88.6458V11.625Z" fill="black"/>
<path d="M104.062 11.625H96.3542V19.375H104.062V11.625Z" fill="black"/>
<path d="M127.188 11.625H119.479V19.375H127.188V11.625Z" fill="black"/>
<path d="M134.896 11.625H127.188V19.375H134.896V11.625Z" fill="black"/>
<path d="M142.604 11.625H134.896V19.375H142.604V11.625Z" fill="black"/>
<path d="M150.312 11.625H142.604V19.375H150.312V11.625Z" fill="black"/>
<path d="M158.021 11.625H150.312V19.375H158.021V11.625Z" fill="black"/>
<path d="M165.729 11.625H158.021V19.375H165.729V11.625Z" fill="black"/>
<path d="M173.438 11.625H165.729V19.375H173.438V11.625Z" fill="black"/>
<path d="M19.2708 19.375H11.5625V27.125H19.2708V19.375Z" fill="black"/>
<path d="M65.5208 19.375H57.8125V27.125H65.5208V19.375Z" fill="black"/>
<path d="M96.3542 19.375H88.6458L88.6458 27.125H96.3542L96.3542 19.375Z" fill="black"/>
<path d="M104.062 19.375H96.3542L96.3542 27.125H104.062V19.375Z" fill="black"/>
<path d="M127.188 19.375H119.479V27.125H127.188V19.375Z" fill="black"/>
<path d="M173.438 19.375H165.729V27.125H173.438V19.375Z" fill="black"/>
<path d="M19.2708 27.125H11.5625V34.875H19.2708V27.125Z" fill="black"/>
<path d="M34.6875 27.125H26.9792V34.875H34.6875V27.125Z" fill="black"/>
<path d="M42.3958 27.125H34.6875V34.875H42.3958V27.125Z" fill="black"/>
<path d="M50.1042 27.125H42.3958V34.875H50.1042V27.125Z" fill="black"/>
<path d="M65.5208 27.125H57.8125V34.875H65.5208V27.125Z" fill="black"/>
<path d="M80.9375 27.125H73.2292V34.875H80.9375V27.125Z" fill="black"/>
<path d="M88.6458 27.125H80.9375V34.875H88.6458L88.6458 27.125Z" fill="black"/>
<path d="M96.3542 27.125H88.6458L88.6458 34.875H96.3542V27.125Z" fill="black"/>
<path d="M111.771 27.125H104.062V34.875H111.771V27.125Z" fill="black"/>
<path d="M127.188 27.125H119.479V34.875H127.188V27.125Z" fill="black"/>
<path d="M142.604 27.125H134.896V34.875H142.604V27.125Z" fill="black"/>
<path d="M150.312 27.125H142.604V34.875H150.312V27.125Z" fill="black"/>
<path d="M158.021 27.125H150.312V34.875H158.021V27.125Z" fill="black"/>
<path d="M173.438 27.125H165.729V34.875H173.438V27.125Z" fill="black"/>
<path d="M19.2708 34.875H11.5625V42.625H19.2708V34.875Z" fill="black"/>
<path d="M34.6875 34.875H26.9792V42.625H34.6875V34.875Z" fill="black"/>
<path d="M42.3958 34.875H34.6875V42.625H42.3958V34.875Z" fill="black"/>
<path d="M50.1042 34.875H42.3958V42.625H50.1042V34.875Z" fill="black"/>
<path d="M65.5208 34.875H57.8125V42.625H65.5208V34.875Z" fill="black"/>
<path d="M80.9375 34.875H73.2292V42.625H80.9375V34.875Z" fill="black"/>
<path d="M88.6458 34.875H80.9375V42.625H88.6458V34.875Z" fill="black"/>
<path d="M104.062 34.875H96.3542L96.3542 42.625H104.062V34.875Z" fill="black"/>
<path d="M127.188 34.875H119.479V42.625H127.188V34.875Z" fill="black"/>
<path d="M142.604 34.875H134.896V42.625H142.604V34.875Z" fill="black"/>
<path d="M150.312 34.875H142.604V42.625H150.312V34.875Z" fill="black"/>
<path d="M158.021 34.875H150.312V42.625H158.021V34.875Z" fill="black"/>
<path d="M173.438 34.875H165.729V42.625H173.438V34.875Z" fill="black"/>
<path d="M19.2708 42.625H11.5625V50.375H19.2708V42.625Z" fill="black"/>
<path d="M34.6875 42.625H26.9792V50.375H34.6875V42.625Z" fill="black"/>
<path d="M42.3958 42.625H34.6875V50.375H42.3958V42.625Z" fill="black"/>
<path d="M50.1042 42.625H42.3958V50.375H50.1042V42.625Z" fill="black"/>
<path d="M65.5208 42.625H57.8125V50.375H65.5208V42.625Z" fill="black"/>
<path d="M80.9375 42.625H73.2292V50.375H80.9375V42.625Z" fill="black"/>
<path d="M104.062 42.625H96.3542V50.375H104.062V42.625Z" fill="black"/>
<path d="M127.188 42.625H119.479V50.375H127.188V42.625Z" fill="black"/>
<path d="M142.604 42.625H134.896V50.375H142.604V42.625Z" fill="black"/>
<path d="M150.312 42.625H142.604V50.375H150.312V42.625Z" fill="black"/>
<path d="M158.021 42.625H150.312V50.375H158.021V42.625Z" fill="black"/>
<path d="M173.438 42.625H165.729V50.375H173.438V42.625Z" fill="black"/>
<path d="M19.2708 50.375H11.5625V58.125H19.2708V50.375Z" fill="black"/>
<path d="M65.5208 50.375H57.8125V58.125H65.5208V50.375Z" fill="black"/>
<path d="M80.9375 50.375H73.2292V58.125H80.9375V50.375Z" fill="black"/>
<path d="M88.6458 50.375H80.9375V58.125H88.6458V50.375Z" fill="black"/>
<path d="M127.188 50.375H119.479V58.125H127.188V50.375Z" fill="black"/>
<path d="M173.438 50.375H165.729V58.125H173.438V50.375Z" fill="black"/>
<path d="M19.2708 58.125H11.5625V65.875H19.2708V58.125Z" fill="black"/>
<path d="M26.9792 58.125H19.2708V65.875H26.9792V58.125Z" fill="black"/>
<path d="M34.6875 58.125H26.9792V65.875H34.6875V58.125Z" fill="black"/>
<path d="M42.3958 58.125H34.6875V65.875H42.3958V58.125Z" fill="black"/>
<path d="M50.1042 58.125H42.3958V65.875H50.1042V58.125Z" fill="black"/>
<path d="M57.8125 58.125H50.1042V65.875H57.8125V58.125Z" fill="black"/>
<path d="M65.5208 58.125H57.8125V65.875H65.5208V58.125Z" fill="black"/>
<path d="M80.9375 58.125H73.2292V65.875H80.9375V58.125Z" fill="black"/>
<path d="M96.3542 58.125H88.6458L88.6458 65.875H96.3542V58.125Z" fill="black"/>
<path d="M111.771 58.125H104.062V65.875H111.771V58.125Z" fill="black"/>
<path d="M127.188 58.125H119.479V65.875H127.188V58.125Z" fill="black"/>
<path d="M134.896 58.125H127.188V65.875H134.896V58.125Z" fill="black"/>
<path d="M142.604 58.125H134.896V65.875H142.604V58.125Z" fill="black"/>
<path d="M150.312 58.125H142.604V65.875H150.312V58.125Z" fill="black"/>
<path d="M158.021 58.125H150.312V65.875H158.021V58.125Z" fill="black"/>
<path d="M165.729 58.125H158.021V65.875H165.729V58.125Z" fill="black"/>
<path d="M173.438 58.125H165.729V65.875H173.438V58.125Z" fill="black"/>
<path d="M88.6458 65.875H80.9375L80.9375 73.625H88.6458L88.6458 65.875Z" fill="black"/>
<path d="M104.062 65.875H96.3542L96.3542 73.625H104.062V65.875Z" fill="black"/>
<path d="M111.771 65.875H104.062V73.625H111.771V65.875Z" fill="black"/>
<path d="M34.6875 73.625H26.9792V81.375H34.6875V73.625Z" fill="black"/>
<path d="M42.3958 73.625H34.6875V81.375H42.3958V73.625Z" fill="black"/>
<path d="M50.1042 73.625H42.3958V81.375H50.1042V73.625Z" fill="black"/>
<path d="M57.8125 73.625H50.1042V81.375H57.8125V73.625Z" fill="black"/>
<path d="M65.5208 73.625H57.8125V81.375H65.5208V73.625Z" fill="black"/>
<path d="M73.2292 73.625H65.5208V81.375H73.2292V73.625Z" fill="black"/>
<path d="M104.062 73.625H96.3542V81.375H104.062V73.625Z" fill="black"/>
<path d="M111.771 73.625H104.062V81.375H111.771V73.625Z" fill="black"/>
<path d="M119.479 73.625L111.771 73.625V81.375H119.479V73.625Z" fill="black"/>
<path d="M134.896 73.625H127.188V81.375H134.896V73.625Z" fill="black"/>
<path d="M142.604 73.625H134.896V81.375H142.604V73.625Z" fill="black"/>
<path d="M150.312 73.625H142.604V81.375H150.312V73.625Z" fill="black"/>
<path d="M158.021 73.625H150.312V81.375H158.021V73.625Z" fill="black"/>
<path d="M173.438 73.625H165.729V81.375H173.438V73.625Z" fill="black"/>
<path d="M34.6875 81.375H26.9792V89.125H34.6875V81.375Z" fill="black"/>
<path d="M42.3958 81.375H34.6875V89.125H42.3958V81.375Z" fill="black"/>
<path d="M57.8125 81.375H50.1042V89.125H57.8125V81.375Z" fill="black"/>
<path d="M80.9375 81.375L73.2292 81.375L73.2292 89.125H80.9375V81.375Z" fill="black"/>
<path d="M88.6458 81.375H80.9375V89.125H88.6458V81.375Z" fill="black"/>
<path d="M96.3542 81.375L88.6458 81.375V89.125H96.3542L96.3542 81.375Z" fill="black"/>
<path d="M111.771 81.375H104.062V89.125H111.771V81.375Z" fill="black"/>
<path d="M127.188 81.375H119.479V89.125H127.188V81.375Z" fill="black"/>
<path d="M150.312 81.375H142.604V89.125H150.312V81.375Z" fill="black"/>
<path d="M158.021 81.375H150.312V89.125H158.021V81.375Z" fill="black"/>
<path d="M173.438 81.375H165.729V89.125H173.438V81.375Z" fill="black"/>
<path d="M19.2708 89.125H11.5625V96.875H19.2708V89.125Z" fill="black"/>
<path d="M26.9792 89.125L19.2708 89.125V96.875H26.9792V89.125Z" fill="black"/>
<path d="M34.6875 89.125H26.9792V96.875H34.6875V89.125Z" fill="black"/>
<path d="M50.1042 89.125H42.3958V96.875H50.1042V89.125Z" fill="black"/>
<path d="M65.5208 89.125L57.8125 89.125V96.875H65.5208V89.125Z" fill="black"/>
<path d="M96.3542 89.125H88.6458L88.6458 96.875H96.3542V89.125Z" fill="black"/>
<path d="M119.479 89.125H111.771V96.875H119.479V89.125Z" fill="black"/>
<path d="M134.896 89.125L127.188 89.125V96.875H134.896V89.125Z" fill="black"/>
<path d="M150.312 89.125H142.604V96.875H150.312V89.125Z" fill="black"/>
<path d="M158.021 89.125H150.312V96.875H158.021V89.125Z" fill="black"/>
<path d="M173.438 89.125H165.729V96.875H173.438V89.125Z" fill="black"/>
<path d="M19.2708 96.875H11.5625V104.625H19.2708V96.875Z" fill="black"/>
<path d="M26.9792 96.875H19.2708V104.625H26.9792V96.875Z" fill="black"/>
<path d="M50.1042 96.875H42.3958V104.625H50.1042V96.875Z" fill="black"/>
<path d="M73.2292 96.875L65.5208 96.875V104.625H73.2292V96.875Z" fill="black"/>
<path d="M96.3542 96.875H88.6458V104.625H96.3542V96.875Z" fill="black"/>
<path d="M111.771 96.875L104.062 96.875V104.625H111.771V96.875Z" fill="black"/>
<path d="M119.479 96.875H111.771V104.625H119.479V96.875Z" fill="black"/>
<path d="M134.896 96.875H127.188V104.625H134.896V96.875Z" fill="black"/>
<path d="M158.021 96.875H150.312V104.625H158.021V96.875Z" fill="black"/>
<path d="M173.438 96.875H165.729V104.625H173.438V96.875Z" fill="black"/>
<path d="M26.9792 104.625H19.2708V112.375H26.9792V104.625Z" fill="black"/>
<path d="M34.6875 104.625H26.9792V112.375H34.6875V104.625Z" fill="black"/>
<path d="M42.3958 104.625H34.6875V112.375H42.3958V104.625Z" fill="black"/>
<path d="M50.1042 104.625H42.3958V112.375H50.1042V104.625Z" fill="black"/>
<path d="M57.8125 104.625H50.1042V112.375H57.8125V104.625Z" fill="black"/>
<path d="M65.5208 104.625H57.8125V112.375H65.5208V104.625Z" fill="black"/>
<path d="M73.2292 104.625H65.5208V112.375H73.2292V104.625Z" fill="black"/>
<path d="M80.9375 104.625H73.2292V112.375H80.9375V104.625Z" fill="black"/>
<path d="M88.6458 104.625H80.9375V112.375H88.6458L88.6458 104.625Z" fill="black"/>
<path d="M119.479 104.625H111.771V112.375H119.479V104.625Z" fill="black"/>
<path d="M127.188 104.625H119.479V112.375H127.188V104.625Z" fill="black"/>
<path d="M134.896 104.625H127.188V112.375H134.896V104.625Z" fill="black"/>
<path d="M142.604 104.625H134.896V112.375H142.604V104.625Z" fill="black"/>
<path d="M150.312 104.625H142.604V112.375H150.312V104.625Z" fill="black"/>
<path d="M96.3542 112.375H88.6458L88.6458 120.125H96.3542V112.375Z" fill="black"/>
<path d="M111.771 112.375H104.062V120.125H111.771V112.375Z" fill="black"/>
<path d="M119.479 112.375H111.771V120.125H119.479V112.375Z" fill="black"/>
<path d="M134.896 112.375H127.188V120.125H134.896V112.375Z" fill="black"/>
<path d="M158.021 112.375H150.312V120.125H158.021V112.375Z" fill="black"/>
<path d="M173.438 112.375H165.729V120.125H173.438V112.375Z" fill="black"/>
<path d="M19.2708 120.125H11.5625V127.875H19.2708V120.125Z" fill="black"/>
<path d="M26.9792 120.125H19.2708V127.875H26.9792V120.125Z" fill="black"/>
<path d="M34.6875 120.125H26.9792V127.875H34.6875V120.125Z" fill="black"/>
<path d="M42.3958 120.125H34.6875V127.875H42.3958V120.125Z" fill="black"/>
<path d="M50.1042 120.125H42.3958V127.875H50.1042V120.125Z" fill="black"/>
<path d="M57.8125 120.125H50.1042V127.875H57.8125V120.125Z" fill="black"/>
<path d="M65.5208 120.125H57.8125V127.875H65.5208V120.125Z" fill="black"/>
<path d="M80.9375 120.125H73.2292V127.875H80.9375V120.125Z" fill="black"/>
<path d="M119.479 120.125H111.771V127.875H119.479V120.125Z" fill="black"/>
<path d="M127.188 120.125H119.479V127.875H127.188V120.125Z" fill="black"/>
<path d="M134.896 120.125H127.188V127.875H134.896V120.125Z" fill="black"/>
<path d="M19.2708 127.875H11.5625V135.625H19.2708V127.875Z" fill="black"/>
<path d="M65.5208 127.875H57.8125V135.625H65.5208V127.875Z" fill="black"/>
<path d="M80.9375 127.875H73.2292V135.625H80.9375V127.875Z" fill="black"/>
<path d="M88.6458 127.875H80.9375V135.625H88.6458V127.875Z" fill="black"/>
<path d="M104.062 127.875H96.3542V135.625H104.062V127.875Z" fill="black"/>
<path d="M119.479 127.875H111.771V135.625H119.479V127.875Z" fill="black"/>
<path d="M127.188 127.875H119.479V135.625H127.188V127.875Z" fill="black"/>
<path d="M165.729 127.875H158.021V135.625H165.729V127.875Z" fill="black"/>
<path d="M173.438 127.875H165.729V135.625H173.438V127.875Z" fill="black"/>
<path d="M19.2708 135.625H11.5625V143.375H19.2708V135.625Z" fill="black"/>
<path d="M34.6875 135.625H26.9792V143.375H34.6875V135.625Z" fill="black"/>
<path d="M42.3958 135.625H34.6875V143.375H42.3958V135.625Z" fill="black"/>
<path d="M50.1042 135.625H42.3958V143.375H50.1042V135.625Z" fill="black"/>
<path d="M65.5208 135.625H57.8125V143.375H65.5208V135.625Z" fill="black"/>
<path d="M80.9375 135.625H73.2292V143.375H80.9375V135.625Z" fill="black"/>
<path d="M96.3542 135.625H88.6458L88.6458 143.375H96.3542L96.3542 135.625Z" fill="black"/>
<path d="M104.062 135.625H96.3542L96.3542 143.375H104.062V135.625Z" fill="black"/>
<path d="M111.771 135.625H104.062V143.375H111.771V135.625Z" fill="black"/>
<path d="M150.312 135.625H142.604V143.375H150.312V135.625Z" fill="black"/>
<path d="M165.729 135.625H158.021V143.375H165.729V135.625Z" fill="black"/>
<path d="M19.2708 143.375H11.5625V151.125H19.2708V143.375Z" fill="black"/>
<path d="M34.6875 143.375H26.9792V151.125H34.6875V143.375Z" fill="black"/>
<path d="M42.3958 143.375H34.6875V151.125H42.3958V143.375Z" fill="black"/>
<path d="M50.1042 143.375H42.3958V151.125H50.1042V143.375Z" fill="black"/>
<path d="M65.5208 143.375H57.8125V151.125H65.5208V143.375Z" fill="black"/>
<path d="M80.9375 143.375H73.2292V151.125H80.9375V143.375Z" fill="black"/>
<path d="M104.062 143.375H96.3542L96.3542 151.125H104.062V143.375Z" fill="black"/>
<path d="M119.479 143.375H111.771V151.125H119.479V143.375Z" fill="black"/>
<path d="M150.312 143.375H142.604V151.125H150.312V143.375Z" fill="black"/>
<path d="M165.729 143.375H158.021V151.125H165.729V143.375Z" fill="black"/>
<path d="M173.438 143.375H165.729V151.125H173.438V143.375Z" fill="black"/>
<path d="M19.2708 151.125H11.5625V158.875H19.2708V151.125Z" fill="black"/>
<path d="M34.6875 151.125H26.9792V158.875H34.6875V151.125Z" fill="black"/>
<path d="M42.3958 151.125H34.6875V158.875H42.3958V151.125Z" fill="black"/>
<path d="M50.1042 151.125H42.3958V158.875H50.1042V151.125Z" fill="black"/>
<path d="M65.5208 151.125H57.8125V158.875H65.5208V151.125Z" fill="black"/>
<path d="M80.9375 151.125H73.2292V158.875H80.9375V151.125Z" fill="black"/>
<path d="M88.6458 151.125H80.9375V158.875H88.6458V151.125Z" fill="black"/>
<path d="M104.062 151.125H96.3542V158.875H104.062V151.125Z" fill="black"/>
<path d="M119.479 151.125H111.771V158.875H119.479V151.125Z" fill="black"/>
<path d="M127.188 151.125H119.479V158.875H127.188V151.125Z" fill="black"/>
<path d="M134.896 151.125H127.188V158.875H134.896V151.125Z" fill="black"/>
<path d="M165.729 151.125H158.021V158.875H165.729V151.125Z" fill="black"/>
<path d="M19.2708 158.875H11.5625V166.625H19.2708V158.875Z" fill="black"/>
<path d="M65.5208 158.875H57.8125V166.625H65.5208V158.875Z" fill="black"/>
<path d="M88.6458 158.875H80.9375L80.9375 166.625H88.6458V158.875Z" fill="black"/>
<path d="M96.3542 158.875H88.6458V166.625H96.3542L96.3542 158.875Z" fill="black"/>
<path d="M127.188 158.875H119.479V166.625H127.188V158.875Z" fill="black"/>
<path d="M142.604 158.875H134.896V166.625H142.604V158.875Z" fill="black"/>
<path d="M173.438 158.875H165.729V166.625H173.438V158.875Z" fill="black"/>
<path d="M19.2708 166.625H11.5625V174.375H19.2708V166.625Z" fill="black"/>
<path d="M26.9792 166.625H19.2708V174.375H26.9792V166.625Z" fill="black"/>
<path d="M34.6875 166.625H26.9792V174.375H34.6875V166.625Z" fill="black"/>
<path d="M42.3958 166.625H34.6875V174.375H42.3958V166.625Z" fill="black"/>
<path d="M50.1042 166.625H42.3958V174.375H50.1042V166.625Z" fill="black"/>
<path d="M57.8125 166.625H50.1042V174.375H57.8125V166.625Z" fill="black"/>
<path d="M65.5208 166.625H57.8125V174.375H65.5208V166.625Z" fill="black"/>
<path d="M88.6458 166.625H80.9375V174.375H88.6458V166.625Z" fill="black"/>
<path d="M104.062 166.625H96.3542L96.3542 174.375H104.062V166.625Z" fill="black"/>
<path d="M119.479 166.625H111.771V174.375H119.479V166.625Z" fill="black"/>
<path d="M134.896 166.625H127.188V174.375H134.896V166.625Z" fill="black"/>
</g>
<defs>
<clipPath id="clip0_105_887">
<rect width="185" height="186" fill="white"/>
</clipPath>
</defs>
</svg>
