<svg width="41" height="42" viewBox="0 0 41 42" fill="none" xmlns="http://www.w3.org/2000/svg">
<path d="M25.5351 25.5141C26.8524 24.1699 27.511 22.5478 27.511 20.6479C27.511 18.748 26.8524 17.1259 25.5351 15.7817C24.2178 14.4374 22.6283 13.7653 20.7665 13.7653C18.9047 13.7653 17.3152 14.4374 15.9979 15.7817C14.6806 17.1259 14.022 18.748 14.022 20.6479C14.022 22.5478 14.6806 24.1699 15.9979 25.5141C17.3152 26.8584 18.9047 27.5305 20.7665 27.5305C22.6283 27.5305 24.2178 26.8584 25.5351 25.5141ZM28.117 13.1469C30.1368 15.2081 31.1467 17.7084 31.1467 20.6479C31.1467 23.5873 30.1368 26.0877 28.117 28.1489C26.0971 30.2101 23.647 31.2407 20.7665 31.2407C17.886 31.2407 15.4359 30.2101 13.416 28.1489C11.3962 26.0877 10.3863 23.5873 10.3863 20.6479C10.3863 17.7084 11.3962 15.2081 13.416 13.1469C15.4359 11.0857 17.886 10.0551 20.7665 10.0551C23.647 10.0551 26.0971 11.0857 28.117 13.1469ZM33.2807 7.87738C33.7549 8.36132 33.992 8.94384 33.992 9.62493C33.992 10.306 33.7549 10.8885 33.2807 11.3725C32.8065 11.8564 32.2357 12.0984 31.5682 12.0984C30.9008 12.0984 30.33 11.8564 29.8558 11.3725C29.3815 10.8885 29.1444 10.306 29.1444 9.62493C29.1444 8.94384 29.3815 8.36132 29.8558 7.87738C30.33 7.39345 30.9008 7.15148 31.5682 7.15148C32.2357 7.15148 32.8065 7.39345 33.2807 7.87738ZM22.7688 3.71017C21.5569 3.71017 20.8894 3.71017 20.7665 3.71017C20.6435 3.71017 19.9673 3.71017 18.7379 3.71017C17.526 3.69224 16.6039 3.69224 15.9716 3.71017C15.3393 3.71017 14.4874 3.73705 13.416 3.79082C12.3622 3.82667 11.4577 3.91629 10.7024 4.05968C9.96476 4.18514 9.34124 4.34645 8.83189 4.54361C7.9537 4.90208 7.18089 5.42186 6.51347 6.10296C5.84604 6.78405 5.33669 7.57269 4.98541 8.46886C4.79221 8.98864 4.62536 9.63389 4.48485 10.4046C4.3619 11.1574 4.27408 12.0805 4.22139 13.1738C4.18626 14.2492 4.15992 15.1095 4.14235 15.7548C4.14235 16.4 4.14235 17.35 4.14235 18.6046C4.15992 19.8413 4.1687 20.5224 4.1687 20.6479C4.1687 20.7734 4.15992 21.4634 4.14235 22.7181C4.14235 23.9548 4.14235 24.8958 4.14235 25.541C4.15992 26.1863 4.18626 27.0555 4.22139 28.1489C4.27408 29.2243 4.3619 30.1474 4.48485 30.9181C4.62536 31.6709 4.79221 32.3071 4.98541 32.8269C5.33669 33.7231 5.84604 34.5117 6.51347 35.1928C7.18089 35.8739 7.9537 36.3937 8.83189 36.7522C9.34124 36.9493 9.96476 37.1196 10.7024 37.263C11.4577 37.3885 12.3622 37.4781 13.416 37.5318C14.4874 37.5677 15.3393 37.5946 15.9716 37.6125C16.6039 37.6125 17.526 37.6125 18.7379 37.6125C19.9673 37.5946 20.6435 37.5856 20.7665 37.5856C20.8894 37.5856 21.5569 37.5946 22.7688 37.6125C23.9982 37.6125 24.9291 37.6125 25.5614 37.6125C26.1937 37.5946 27.0368 37.5677 28.0906 37.5318C29.162 37.4781 30.0665 37.3885 30.8042 37.263C31.5595 37.1196 32.1918 36.9493 32.7011 36.7522C33.5793 36.3937 34.3521 35.8739 35.0195 35.1928C35.687 34.5117 36.1963 33.7231 36.5476 32.8269C36.7408 32.3071 36.8988 31.6709 37.0218 30.9181C37.1623 30.1474 37.2501 29.2243 37.2853 28.1489C37.3379 27.0555 37.3643 26.1863 37.3643 25.541C37.3819 24.8958 37.3819 23.9548 37.3643 22.7181C37.3643 21.4634 37.3643 20.7734 37.3643 20.6479C37.3643 20.5224 37.3643 19.8413 37.3643 18.6046C37.3819 17.35 37.3819 16.4 37.3643 15.7548C37.3643 15.1095 37.3379 14.2492 37.2853 13.1738C37.2501 12.0805 37.1623 11.1574 37.0218 10.4046C36.8988 9.63389 36.7408 8.98864 36.5476 8.46886C36.1963 7.57269 35.687 6.78405 35.0195 6.10296C34.3521 5.42186 33.5793 4.90208 32.7011 4.54361C32.1918 4.34645 31.5595 4.18514 30.8042 4.05968C30.0665 3.91629 29.162 3.82667 28.0906 3.79082C27.0368 3.73705 26.1937 3.71017 25.5614 3.71017C24.9291 3.69224 23.9982 3.69224 22.7688 3.71017ZM40.8683 12.1253C40.9561 13.7025 41 16.5434 41 20.6479C41 24.7524 40.9561 27.5933 40.8683 29.1705C40.6926 32.8986 39.6037 35.7843 37.6014 37.8276C35.5991 39.8709 32.7714 40.9821 29.1181 41.1614C27.5725 41.251 24.7886 41.2958 20.7665 41.2958C16.7444 41.2958 13.9605 41.251 12.4149 41.1614C8.76163 40.9821 5.93386 39.8709 3.93159 37.8276C1.92931 35.7843 0.840356 32.8986 0.664718 29.1705C0.576899 27.5933 0.53299 24.7524 0.53299 20.6479C0.53299 16.5434 0.576899 13.7025 0.664718 12.1253C0.840356 8.39717 1.92931 5.51148 3.93159 3.4682C5.93386 1.42492 8.76163 0.313662 12.4149 0.134428C13.9605 0.0448093 16.7444 0 20.7665 0C24.7886 0 27.5725 0.0448093 29.1181 0.134428C32.7714 0.313662 35.5991 1.42492 37.6014 3.4682C39.6037 5.51148 40.6926 8.39717 40.8683 12.1253Z" fill="#7D8592"/>
</svg>
