<svg width="40" height="40" viewBox="0 0 40 40" fill="none" xmlns="http://www.w3.org/2000/svg">
<path fill-rule="evenodd" clip-rule="evenodd" d="M25.1838 6.66793C26.9606 6.69194 27.849 6.70395 28.0933 7.33243C28.3376 7.96091 27.5132 8.73665 25.8645 10.2881C23.2803 12.7199 21.6667 16.1715 21.6667 20C21.6667 23.8285 23.2803 27.2802 25.8645 29.7119C27.5132 31.2634 28.3376 32.0391 28.0933 32.6676C27.849 33.2961 26.9606 33.3081 25.1838 33.3321C25.1227 33.3329 25.0614 33.3334 25 33.3334C17.6362 33.3334 11.6667 27.3638 11.6667 20C11.6667 12.6362 17.6362 6.66669 25 6.66669C25.0614 6.66669 25.1227 6.6671 25.1838 6.66793Z" fill="#3F8CFF"/>
</svg>
