<svg width="24" height="25" viewBox="0 0 24 25" fill="none" xmlns="http://www.w3.org/2000/svg">
<path d="M11 5.5H6C5.46957 5.5 4.96086 5.71072 4.58579 6.08579C4.21071 6.46086 4 6.96957 4 7.5V18.5C4 19.0304 4.21071 19.5391 4.58579 19.9142C4.96086 20.2893 5.46957 20.5 6 20.5H17C17.5304 20.5 18.0391 20.2893 18.4142 19.9142C18.7893 19.5391 19 19.0304 19 18.5V13.5M17.586 4.086C17.7705 3.89498 17.9912 3.74262 18.2352 3.6378C18.4792 3.53298 18.7416 3.47781 19.0072 3.4755C19.2728 3.47319 19.5361 3.5238 19.7819 3.62436C20.0277 3.72492 20.251 3.87343 20.4388 4.06121C20.6266 4.249 20.7751 4.4723 20.8756 4.71809C20.9762 4.96389 21.0268 5.22725 21.0245 5.4928C21.0222 5.75836 20.967 6.0208 20.8622 6.26481C20.7574 6.50882 20.605 6.72951 20.414 6.914L11.828 15.5H9V12.672L17.586 4.086Z" stroke="#3F8CFF" stroke-width="2" stroke-linecap="round" stroke-linejoin="round"/>
</svg>
