<svg width="49" height="46" viewBox="0 0 49 46" fill="none" xmlns="http://www.w3.org/2000/svg">
<path d="M24.5 44.625C37.2889 44.625 47.75 34.9651 47.75 22.9375C47.75 10.9099 37.2889 1.25 24.5 1.25C11.7111 1.25 1.25 10.9099 1.25 22.9375C1.25 34.9651 11.7111 44.625 24.5 44.625Z" stroke="#DFE0EB" stroke-width="1.5"/>
<path d="M11.7869 36.7562C12.22 33.4753 16.4704 23.75 24.75 23.75C33.0293 23.75 36.832 33.4745 37.2172 36.7558C37.2494 37.03 37.0261 37.25 36.75 37.25H12.25C11.9739 37.25 11.7507 37.0299 11.7869 36.7562Z" fill="#3F8CFF"/>
<path d="M32 15.875C32 19.3958 28.6421 22.25 24.5 22.25C20.3579 22.25 17 19.3958 17 15.875C17 12.3542 20.3579 9.5 24.5 9.5C28.6421 9.5 32 12.3542 32 15.875Z" fill="#3F8CFF"/>
</svg>
