<svg width="27" height="41" viewBox="0 0 27 41" fill="none" xmlns="http://www.w3.org/2000/svg">
<path fill-rule="evenodd" clip-rule="evenodd" d="M23.246 3.46823L7.30643 0.963443C4.08584 0.457351 2.47555 0.204305 1.42527 1.10242C0.375 2.00054 0.375 3.6306 0.375 6.89071V19.5H13.2944L7.09413 11.7497L8.65587 10.5003L16.1559 19.8753L16.6556 20.5L16.1559 21.1247L8.65587 30.4997L7.09413 29.2503L13.2944 21.5H0.375V34.1077C0.375 37.3678 0.375 38.9979 1.42527 39.896C2.47555 40.7941 4.08584 40.5411 7.30643 40.035L23.246 37.5302C24.8587 37.2768 25.6651 37.1501 26.145 36.5888C26.625 36.0275 26.625 35.2112 26.625 33.5787V7.41973C26.625 5.78721 26.625 4.97095 26.145 4.40966C25.6651 3.84837 24.8587 3.72166 23.246 3.46823Z" fill="#3F8CFF"/>
</svg>
