<svg width="42" height="35" viewBox="0 0 42 35" fill="none" xmlns="http://www.w3.org/2000/svg">
<path d="M41.5208 4.52785C40.3441 6.28436 38.9214 7.78098 37.2528 9.0177C37.2704 9.26863 37.2792 9.64503 37.2792 10.1469C37.2792 12.4769 36.9455 14.807 36.278 17.1371C35.6106 19.4492 34.5919 21.6717 33.2219 23.8046C31.8695 25.9375 30.2537 27.8285 28.3743 29.4774C26.495 31.1085 24.2293 32.4169 21.5771 33.4027C18.925 34.3706 16.0884 34.8545 13.0675 34.8545C8.30768 34.8545 3.95186 33.555 0 30.9561C0.614733 31.0278 1.29972 31.0637 2.05496 31.0637C6.00682 31.0637 9.52836 29.8269 12.6196 27.3535C10.7754 27.3176 9.1244 26.7441 7.6666 25.6328C6.2088 24.5036 5.20767 23.0698 4.66319 21.3312C5.2428 21.4208 5.77849 21.4656 6.27028 21.4656C7.02552 21.4656 7.77198 21.367 8.50966 21.1699C6.54252 20.7576 4.90908 19.7629 3.60936 18.1856C2.3272 16.5904 1.68612 14.7443 1.68612 12.6472V12.5397C2.88046 13.2208 4.16262 13.5882 5.5326 13.642C4.37339 12.8533 3.45129 11.8227 2.7663 10.5502C2.08131 9.27759 1.73882 7.89748 1.73882 6.40983C1.73882 4.83255 2.12522 3.37178 2.89803 2.02752C5.02325 4.69813 7.60513 6.83999 10.6437 8.45311C13.6998 10.0483 16.9666 10.9355 20.4443 11.1148C20.3038 10.4337 20.2335 9.77049 20.2335 9.12524C20.2335 6.72349 21.059 4.6802 22.71 2.99539C24.3786 1.29265 26.3896 0.441284 28.7432 0.441284C31.2021 0.441284 33.2746 1.35539 34.9608 3.18359C36.8752 2.80719 38.6755 2.10817 40.3616 1.08653C39.7118 3.14774 38.4647 4.74294 36.6205 5.87212C38.254 5.69288 39.8874 5.2448 41.5208 4.52785Z" fill="#7D8592"/>
</svg>
