<svg width="48" height="35" viewBox="0 0 48 35" fill="none" xmlns="http://www.w3.org/2000/svg">
<path d="M18.8745 23.8853L31.6258 17.164L18.8745 10.362V23.8853ZM23.7484 0.710205C26.6992 0.710205 29.5445 0.755014 32.2844 0.84463C35.042 0.916324 37.0618 0.996981 38.344 1.0866L40.2672 1.19414C40.2848 1.19414 40.4341 1.21206 40.7151 1.24791C40.9961 1.26583 41.1981 1.29272 41.321 1.32857C41.444 1.34649 41.646 1.38234 41.927 1.43611C42.2256 1.48988 42.4802 1.56157 42.691 1.65119C42.9018 1.74081 43.1477 1.85731 43.4287 2.0007C43.7097 2.14409 43.9819 2.32332 44.2454 2.5384C44.5089 2.73556 44.7635 2.96857 45.0094 3.23742C45.1148 3.34496 45.2465 3.51524 45.4046 3.74824C45.5802 3.96333 45.8349 4.48311 46.1686 5.30759C46.5199 6.13208 46.757 7.03721 46.88 8.02301C47.0205 9.17011 47.1259 10.3979 47.1961 11.7063C47.2839 12.9968 47.3366 14.0095 47.3542 14.7443V15.8197V19.4762C47.3718 22.0751 47.2137 24.674 46.88 27.2729C46.757 28.2587 46.5375 29.1549 46.2213 29.9614C45.9052 30.7501 45.6242 31.2967 45.3783 31.6014L45.0094 32.0585C44.7635 32.3273 44.5089 32.5693 44.2454 32.7844C43.9819 32.9815 43.7097 33.1518 43.4287 33.2952C43.1477 33.4207 42.9018 33.5282 42.691 33.6178C42.4802 33.7074 42.2256 33.7791 41.927 33.8329C41.646 33.8867 41.4352 33.9315 41.2947 33.9673C41.1717 33.9853 40.9697 34.0121 40.6887 34.048C40.4253 34.0659 40.2848 34.0749 40.2672 34.0749C35.8587 34.4154 30.3524 34.5857 23.7484 34.5857C20.1127 34.5498 16.9512 34.4961 14.264 34.4244C11.5943 34.3348 9.8379 34.2631 8.99483 34.2093L7.70389 34.1018L6.75545 33.9942C6.12315 33.9046 5.64015 33.815 5.30644 33.7254C4.99029 33.6357 4.54241 33.4475 3.9628 33.1608C3.40076 32.874 2.90897 32.5066 2.48744 32.0585C2.38206 31.9509 2.24155 31.7896 2.06591 31.5745C1.90784 31.3415 1.65316 30.8128 1.30189 29.9883C0.968174 29.1638 0.739844 28.2587 0.616898 27.2729C0.476387 26.1258 0.362222 24.907 0.274403 23.6165C0.204148 22.3081 0.160239 21.2864 0.142675 20.5516V19.4762V15.8197C0.125111 13.2208 0.283185 10.6219 0.616898 8.02301C0.739844 7.03721 0.959392 6.15 1.27554 5.36136C1.59169 4.5548 1.87271 3.99917 2.1186 3.69447L2.48744 3.23742C2.73334 2.96857 2.98801 2.73556 3.25147 2.5384C3.51493 2.32332 3.78716 2.14409 4.06819 2.0007C4.34921 1.85731 4.5951 1.74081 4.80587 1.65119C5.01663 1.56157 5.26253 1.48988 5.54355 1.43611C5.84213 1.38234 6.0529 1.34649 6.17584 1.32857C6.29879 1.29272 6.50077 1.26583 6.78179 1.24791C7.06282 1.21206 7.21211 1.19414 7.22967 1.19414C11.6382 0.871517 17.1444 0.710205 23.7484 0.710205Z" fill="#7D8592"/>
</svg>
